<?xml version="1.0" standalone="no"?>
<!DOCTYPE svg PUBLIC "-//W3C//DTD SVG 20010904//EN"
 "http://www.w3.org/TR/2001/REC-SVG-20010904/DTD/svg10.dtd">
<svg version="1.0" xmlns="http://www.w3.org/2000/svg"
 width="1200.000000pt" height="1200.000000pt" viewBox="0 0 1200.000000 1200.000000"
 preserveAspectRatio="xMidYMid meet">
<metadata>
Created by potrace 1.16, written by Peter Selinger 2001-2019
</metadata>
<g transform="translate(0.000000,1200.000000) scale(0.100000,-0.100000)"
fill="#000000" stroke="none">
<path d="M5735 9049 c-629 -52 -1238 -281 -1742 -655 -768 -570 -1253 -1437
-1344 -2398 -17 -188 -7 -603 20 -781 21 -138 77 -392 103 -470 12 -36 17 -40
51 -43 20 -2 37 0 37 5 0 4 -12 46 -25 93 -35 116 -80 338 -101 495 -25 183
-25 617 0 800 108 786 444 1453 1001 1983 498 475 1113 771 1825 878 144 21
572 30 737 15 1293 -121 2391 -982 2812 -2204 75 -217 123 -423 157 -672 25
-183 25 -617 0 -800 -21 -157 -66 -379 -101 -495 -13 -47 -25 -89 -25 -93 0
-5 17 -7 38 -5 33 3 38 7 50 43 26 78 82 332 103 470 27 178 37 593 20 781
-100 1057 -672 1988 -1571 2554 -149 93 -438 235 -612 300 -451 167 -961 238
-1433 199z"/>
<path d="M6320 8040 c-141 -24 -264 -120 -331 -255 -13 -27 -25 -52 -26 -54
-2 -2 -26 18 -55 46 -111 104 -219 133 -508 133 -166 0 -188 -2 -217 -20 -42
-25 -49 -66 -33 -183 16 -122 55 -203 136 -285 109 -109 188 -132 459 -132
l195 0 0 -165 0 -165 -79 0 -80 0 -42 45 c-85 90 -214 148 -317 143 -76 -4
-82 -16 -82 -184 l0 -131 -37 -26 c-131 -88 -239 -211 -308 -350 l-46 -92 -75
-5 c-81 -7 -113 -23 -151 -80 -22 -31 -23 -42 -23 -224 0 -179 2 -193 23 -230
30 -54 85 -81 165 -82 l62 -1 44 -89 c63 -131 167 -252 289 -335 l57 -40 0
-84 c0 -98 12 -130 53 -145 17 -5 111 -10 214 -10 217 0 239 6 249 70 l7 40
187 0 187 0 7 -41 c10 -64 37 -71 271 -67 248 4 235 -6 235 167 l0 127 61 59
c127 125 223 283 257 426 l17 69 39 0 c51 0 120 34 147 72 52 72 26 189 -50
227 -24 13 -60 21 -88 21 l-48 0 -17 72 c-39 160 -157 347 -289 458 -169 142
-332 203 -576 216 l-143 7 0 238 0 239 204 0 c188 0 210 2 274 24 111 37 186
97 249 201 46 74 63 144 63 256 0 136 13 129 -265 128 -121 -1 -240 -5 -265
-9z m417 -117 c9 -23 -11 -132 -32 -177 -30 -63 -99 -131 -162 -159 -57 -26
-65 -26 -268 -27 l-210 -1 2 70 c3 113 65 210 174 271 42 23 56 24 254 30 116
3 216 7 223 8 7 1 16 -6 19 -15z m-1088 -144 c36 -7 86 -22 111 -34 49 -25
119 -94 143 -141 17 -34 37 -122 37 -164 l0 -30 -203 0 c-224 0 -274 10 -346
68 -75 61 -131 177 -131 271 l0 41 162 0 c89 0 191 -5 227 -11z m-90 -780 c41
-20 79 -50 113 -89 28 -32 62 -63 75 -69 13 -6 64 -11 113 -11 l90 0 0 -88 0
-88 -105 4 c-58 3 -125 1 -150 -2 l-45 -7 0 -53 c0 -47 3 -54 23 -60 29 -8
616 -8 656 0 30 6 31 8 31 59 l0 53 -36 7 c-21 3 -87 5 -148 4 l-111 -3 -3 87
-3 87 131 0 c99 0 148 -5 205 -20 221 -59 395 -196 505 -397 28 -51 75 -192
85 -255 8 -52 35 -68 112 -68 56 0 64 -3 79 -25 27 -41 6 -55 -83 -55 -65 0
-77 -3 -94 -22 -10 -13 -18 -32 -19 -42 0 -39 -33 -152 -62 -215 -41 -90 -105
-176 -193 -260 -42 -39 -80 -84 -86 -98 -6 -15 -9 -68 -8 -118 l2 -90 -133 -3
c-142 -3 -150 -1 -150 47 0 14 -7 33 -17 43 -15 17 -37 18 -277 18 -295 0
-302 -2 -308 -68 l-3 -37 -142 -3 -143 -3 0 84 c0 93 -2 95 -87 150 -119 75
-228 210 -302 369 -21 47 -46 88 -56 91 -9 4 -51 7 -93 7 -42 0 -83 4 -90 8
-9 7 -12 51 -10 188 l3 179 88 3 c58 2 97 8 112 18 14 9 33 43 49 87 51 140
157 269 301 368 l80 54 3 133 c3 154 1 151 101 101z"/>
<path d="M5150 6305 l0 -55 155 0 155 0 0 55 0 55 -155 0 -155 0 0 -55z"/>
<path d="M5000 7295 l0 -155 55 0 55 0 0 155 0 155 -55 0 -55 0 0 -155z"/>
<path d="M6890 7295 l0 -155 55 0 55 0 0 155 0 155 -55 0 -55 0 0 -155z"/>
<path d="M5200 7145 l0 -105 55 0 55 0 0 105 0 105 -55 0 -55 0 0 -105z"/>
<path d="M6690 7145 l0 -105 55 0 55 0 0 105 0 105 -55 0 -55 0 0 -105z"/>
<path d="M5148 4429 c-17 -9 -18 -47 -18 -560 0 -582 1 -590 47 -641 44 -49
130 -38 172 20 29 41 27 50 -14 58 -19 3 -40 13 -47 22 -10 12 -14 133 -16
556 -2 411 -6 542 -15 548 -17 11 -89 9 -109 -3z"/>
<path d="M5568 4429 c-17 -9 -18 -49 -18 -609 0 -582 1 -600 19 -610 25 -13
72 -13 105 0 l26 10 0 173 0 174 57 21 57 21 33 -20 c37 -23 105 -122 178
-258 28 -51 60 -100 72 -108 33 -22 85 -31 113 -21 60 22 106 98 60 98 -55 0
-88 27 -126 102 -70 139 -130 223 -186 257 l-27 17 61 50 c81 64 149 150 199
249 37 74 39 80 23 92 -10 7 -30 13 -45 13 -51 0 -77 -17 -98 -65 -31 -71 -88
-142 -160 -202 -64 -52 -170 -113 -198 -113 -11 0 -13 66 -13 360 0 345 -1
360 -19 370 -25 13 -91 13 -113 -1z"/>
<path d="M6918 4433 c-17 -4 -18 -40 -18 -566 0 -515 1 -565 18 -596 23 -46
61 -73 107 -74 32 -1 43 5 76 41 22 22 39 46 39 51 0 6 -16 13 -35 17 -67 12
-65 -9 -65 585 l0 537 -22 6 c-26 6 -74 6 -100 -1z"/>
<path d="M6470 4380 c-15 -15 -20 -33 -20 -70 0 -65 30 -100 85 -100 55 0 85
35 85 100 0 66 -23 90 -85 90 -32 0 -51 -6 -65 -20z"/>
<path d="M4372 4342 c-11 -8 -120 -285 -358 -914 -41 -108 -74 -201 -74 -206
0 -27 108 -31 138 -4 11 9 36 62 57 117 21 55 44 106 53 113 18 13 487 18 509
4 6 -4 31 -58 54 -121 35 -92 48 -115 69 -123 25 -10 115 -6 126 5 6 6 0 21
-246 667 -89 234 -168 435 -176 448 -12 19 -23 22 -77 22 -34 0 -68 -4 -75 -8z
m183 -479 c71 -189 99 -275 91 -283 -13 -13 -385 -14 -405 -1 -12 8 5 60 90
285 57 152 108 275 112 273 5 -1 55 -125 112 -274z"/>
<path d="M7532 4080 c-24 -5 -68 -20 -98 -34 -56 -26 -70 -45 -81 -113 -7 -41
0 -41 83 -3 113 52 244 58 311 14 52 -33 80 -117 49 -143 -8 -7 -78 -30 -155
-52 -224 -62 -310 -111 -357 -201 -25 -48 -29 -137 -10 -196 55 -165 295 -213
495 -100 l55 30 20 -24 c66 -80 169 -79 212 3 19 37 20 36 -24 43 -70 11 -70
10 -74 306 -4 219 -7 273 -21 309 -26 68 -61 107 -122 137 -46 22 -72 27 -148
30 -51 2 -111 -1 -135 -6z m282 -406 c3 -9 6 -71 6 -139 0 -117 -1 -125 -25
-153 -54 -65 -199 -97 -290 -65 -69 25 -98 69 -93 139 8 96 71 144 263 200
131 38 131 38 139 18z"/>
<path d="M6482 4069 l-23 -9 3 -382 c3 -378 3 -383 26 -420 22 -36 32 -43 86
-59 34 -10 74 8 105 47 30 38 26 52 -18 64 -21 5 -42 17 -45 26 -3 9 -6 175
-6 370 l0 354 -26 10 c-31 12 -71 12 -102 -1z"/>
</g>
</svg>
