<?xml version="1.0" standalone="no"?>
<!DOCTYPE svg PUBLIC "-//W3C//DTD SVG 20010904//EN"
 "http://www.w3.org/TR/2001/REC-SVG-20010904/DTD/svg10.dtd">
<svg version="1.0" xmlns="http://www.w3.org/2000/svg"
 width="1200.000000pt" height="1200.000000pt" viewBox="0 0 1200.000000 1200.000000"
 preserveAspectRatio="xMidYMid meet">

<g transform="translate(0.000000,1200.000000) scale(0.100000,-0.100000)"
fill="#000000" stroke="none">
<path d="M5100 3830 l0 -590 115 0 115 0 0 590 0 590 -115 0 -115 0 0 -590z"/>
<path d="M5540 3830 l0 -590 115 0 115 0 0 133 0 133 54 53 54 53 96 -170 c54
-93 102 -177 109 -186 10 -14 31 -16 138 -14 l125 3 -157 255 -157 254 52 57
c28 31 93 102 145 158 l93 101 -131 0 -131 0 -122 -147 c-68 -82 -133 -161
-145 -178 l-22 -30 -1 353 0 352 -115 0 -115 0 0 -590z"/>
<path d="M6442 4318 l3 -103 113 -3 112 -3 0 106 0 105 -115 0 -116 0 3 -102z"/>
<path d="M6880 3830 l0 -590 115 0 115 0 0 590 0 590 -115 0 -115 0 0 -590z"/>
<path d="M4275 4338 c-7 -19 -45 -130 -218 -640 l-156 -458 117 0 118 0 40
123 40 122 208 0 208 0 29 -80 c16 -44 36 -99 45 -122 l16 -43 125 0 c110 0
124 2 119 16 -3 8 -92 258 -197 555 l-192 539 -149 0 c-110 0 -150 -3 -153
-12z m226 -413 l77 -235 -153 0 -152 0 63 207 c35 113 67 222 70 240 4 19 9
31 12 28 3 -3 40 -111 83 -240z"/>
<path d="M7540 4076 c-78 -18 -103 -30 -145 -68 -40 -34 -85 -117 -85 -155 0
-22 3 -23 110 -23 98 0 110 2 110 18 1 45 49 72 130 72 55 0 65 -3 91 -29 24
-25 29 -37 29 -80 l0 -51 -89 0 c-215 0 -347 -55 -398 -168 -22 -46 -25 -65
-21 -126 5 -79 22 -118 70 -167 55 -54 110 -73 213 -73 101 0 165 21 210 70
l25 27 0 -26 c0 -55 4 -57 119 -57 l106 0 -2 102 c-2 57 -4 202 -6 323 -2 197
-5 225 -23 265 -28 61 -91 115 -156 135 -73 22 -219 28 -288 11z m240 -513 c0
-69 -30 -137 -69 -157 -70 -37 -153 -27 -191 21 -31 39 -27 105 8 144 32 36
70 47 175 48 l77 1 0 -57z"/>
<path d="M6440 3655 l0 -415 115 0 115 0 0 415 0 415 -115 0 -115 0 0 -415z"/>
</g>
</svg>
